<svg xmlns="http://www.w3.org/2000/svg">
    <symbol id="locale-ko" viewBox="0 0 16 16">
        <path d="M.667 3.333h14.666v10H.667v-10Z" stroke="none" fill="#F5F5F5"></path><path d="M3.637 7.038 5.09 4.8l.196.127-1.452 2.237-.196-.127ZM2.598 10.315l.224-.144 1.45 2.238-.224.145-1.45-2.239ZM11.22 4.586l.224-.145 1.475 2.261-.223.146-1.475-2.262ZM3.114 6.714l1.452-2.237.196.128L3.31 6.84l-.196-.127ZM11.482 6.139l.195-.127.671 1.035-.195.127-.671-1.035ZM12.485 11.22l.671-1.035.196.127-.672 1.035-.195-.127ZM3.878 11.177l.196-.128.672 1.034-.195.127-.673-1.034ZM12.52 5.478l.195-.128.676 1.031-.195.128-.676-1.031ZM11.457 10.546l.671-1.035.196.127-.671 1.035-.196-.127ZM11.98 10.868l.673-1.033.223.146-.673 1.033-.224-.146ZM10.716 4.928l.196-.128.675 1.032-.195.128-.676-1.032ZM11.701 12.412l.666-1.038.196.126-.665 1.038-.197-.126ZM3.117 9.961l.224-.144.667 1.037-.224.145-.667-1.038ZM11.755 4.262l.195-.128.677 1.032-.195.128-.677-1.032ZM10.669 11.73l.674-1.034.223.146-.674 1.033-.223-.146ZM11.178 12.086l.668-1.037.224.144-.668 1.037-.224-.144ZM2.586 6.385l1.477-2.26.223.146L2.81 6.53l-.223-.146ZM3.619 9.622l.195-.127 1.45 2.237-.195.127-1.45-2.237Z" stroke="none" fill="#263238"></path><path d="M6.667 9.667C7.4 9.667 8 9.067 8 8.333 8 7.6 8.6 7 9.333 7c.734 0 1.334.6 1.334 1.333 0-1.466-1.2-2.666-2.667-2.666a2.675 2.675 0 0 0-2.667 2.666c0 .734.6 1.334 1.334 1.334Z" stroke="none" fill="#F44336"></path><path d="M9.333 7C8.6 7 8 7.6 8 8.333c0 .734-.6 1.334-1.333 1.334-.734 0-1.334-.6-1.334-1.334C5.333 9.8 6.533 11 8 11c1.467 0 2.667-1.2 2.667-2.667 0-.733-.6-1.333-1.334-1.333Z" stroke="none" fill="#3949AB"></path>
    </symbol>
    <symbol id="locale-es" viewBox="0 0 16 16">
        <path d="M.667 3h14.666v10H.667V3Z" stroke="none" fill="#DD2C00"></path><path d="M.667 5.667h14.666v4.666H.667V5.667Z" stroke="none" fill="#FFC107"></path>
    </symbol>
    <symbol id="locale-ru" viewBox="0 0 16 16">
        <path d="M.667 9.667h14.666V13H.667V9.667Z" stroke="none" fill="#FF3D00"></path><path d="M.667 6.333h14.666v3.334H.667V6.333Z" stroke="none" fill="#3F51B5"></path><path d="M.667 3h14.666v3.333H.667V3Z" stroke="none" fill="#E0E1E2"></path>
    </symbol>
    <symbol id="locale-pt" viewBox="0 0 16 16">
        <path d="M.667 3h14.666v10H.667V3Z" stroke="none" fill="#4CAF50"></path><path d="m14 8-6 4-6-4 6-4 6 4Z" stroke="none" fill="#FFEB3B"></path><path d="M8 5.666a2.333 2.333 0 1 0 0 4.667 2.333 2.333 0 0 0 0-4.667Z" stroke="none" fill="#3F51B5"></path><path d="M5.935 6.916a2.31 2.31 0 0 0-.233.696c.751-.093 2.793-.187 4.511 1.124a2.33 2.33 0 0 0 .12-.736v-.002C8.686 6.882 6.886 6.837 5.935 6.916Z" stroke="none" fill="#fff"></path>
    </symbol>
    <symbol id="locale-ja" viewBox="0 0 16 16">
        <path d="M.667 3h14.666v10H.667V3Z" stroke="none" fill="#ECEFF1"></path><path d="M8 5a3 3 0 1 0 0 6 3 3 0 0 0 0-6Z" stroke="none" fill="#D50000"></path>
    </symbol>
    <symbol id="locale-it" viewBox="0 0 16 16">
        <path d="M5.333 3h5.334v10H5.333V3Z" stroke="none" fill="#ECEFF1"></path><path d="M10.667 3h4.666v10h-4.666V3Z" stroke="none" fill="#FF3D00"></path><path d="M.667 3h4.666v10H.667V3Z" stroke="none" fill="#689F38"></path>
    </symbol>
    <symbol id="locale-de" viewBox="0 0 16 16">
        <path d="M.667 9.667h14.666V13H.667V9.667Z" stroke="none" fill="#FFC107"></path><path d="M.667 6.333h14.666v3.334H.667V6.333Z" stroke="none" fill="#FF3D00"></path><path d="M.667 3h14.666v3.333H.667V3Z" stroke="none" fill="#455A64"></path>
    </symbol>
    <symbol id="locale-fr" viewBox="0 0 16 16">
        <path d="M5.333 3h5.334v10H5.333V3Z" stroke="none" fill="#ECEFF1"></path><path d="M10.667 3h4.666v10h-4.666V3Z" stroke="none" fill="#FF3D00"></path><path d="M.667 3h4.666v10H.667V3Z" stroke="none" fill="#3F51B5"></path>
    </symbol>
    <symbol id="locale-zh" viewBox="0 0 16 16">
        <path d="M.667 3v10h14.666V3H.667Z" stroke="none" fill="#FF3D00"></path><path d="m3.333 4.497.394 1.25H5l-1.03.709.393 1.21-1.03-.748-1.03.749.394-1.211-1.03-.71H2.94l.393-1.25Zm2.492-.838.118.375h.382l-.31.212.119.363-.31-.224-.308.224.118-.363-.31-.212h.383l.118-.375ZM5.833 8l.118.375h.382l-.309.212.118.364-.309-.225-.309.225.118-.364-.309-.212h.382L5.833 8Zm1.334-3 .118.375h.382l-.31.212.119.364-.31-.225-.308.225.118-.364-.31-.212h.383L7.167 5Zm0 1.667.118.375h.382l-.31.212.119.364-.31-.225-.308.225.118-.364-.31-.212h.383l.118-.375Z" stroke="none" fill="#FFEB3B"></path>
    </symbol>
    <symbol id="locale-en" viewBox="0 0 16 16">
        <path d="M.666 3.333h14.667v9H.666v-9Z" stroke="none" fill="#ECEFF1"></path><path d="M.667 3.333h14.666v1H.667v-1Zm0 2h14.666v1H.667v-1Zm0 2h14.666v1H.667v-1Zm0 2h14.666v1H.667v-1Zm0 2h14.666v1H.667v-1Z" stroke="none" fill="#F44336"></path><path d="M.667 3.333h7v5h-7v-5Z" stroke="none" fill="#3F51B5"></path><path d="m1.417 4 .154.33.346.052-.25.257.059.361-.31-.17-.309.17.06-.361-.25-.257.345-.053L1.417 4ZM2.75 4l.154.33.346.052-.25.257.06.361-.31-.17-.31.17.06-.361-.25-.257.346-.053L2.75 4Zm1.333 0 .155.33.345.052-.25.257.06.361-.31-.17-.309.17.06-.361-.25-.257.345-.053L4.083 4Zm1.334 0 .154.33.346.052-.25.257.059.361-.31-.17-.309.17.06-.361-.25-.257.345-.053L5.417 4Zm1.25 0 .154.33.346.052-.25.257.059.361-.31-.17-.309.17.06-.361-.25-.257.345-.053L6.667 4Zm-5.25 2.667.154.329.346.053-.25.256.059.362-.31-.171-.309.17.06-.36-.25-.257.345-.053.155-.33Zm1.333 0 .154.329.346.053-.25.256.06.362-.31-.171-.31.17.06-.36-.25-.257.346-.053.154-.33Zm1.333 0 .155.329.345.053-.25.256.06.362-.31-.171-.309.17.06-.36-.25-.257.345-.053.154-.33Zm1.334 0 .154.329.346.053-.25.256.059.362-.31-.171-.309.17.06-.36-.25-.257.345-.053.155-.33Zm1.25 0 .154.329.346.053-.25.256.059.362-.31-.171-.309.17.06-.36-.25-.257.345-.053.155-.33ZM1.75 5.333l.154.33.346.052-.25.257.06.361-.31-.17-.31.17.06-.361-.25-.257.346-.052.154-.33Zm1.333 0 .155.33.345.052-.25.257.06.361-.31-.17-.309.17.06-.361-.25-.257.345-.052.154-.33Zm1.334 0 .154.33.346.052-.25.257.059.361-.31-.17-.309.17.06-.361-.25-.257.345-.052.155-.33Zm1.333 0 .154.33.346.052-.25.257.06.361-.31-.17-.31.17.06-.361-.25-.257.346-.052.154-.33Zm1.25 0 .154.33.346.052-.25.257.06.361-.31-.17-.31.17.06-.361-.25-.257.346-.052.154-.33Z" stroke="none" fill="#fff"></path>
    </symbol>
    <symbol id="scroll-down" viewBox="0 0 24 25">
        <path d="M2 14L12 22.5L22.5 14" stroke-width="2.5" stroke-linecap="round" fill="none"/>
    </symbol>
    <symbol id="star" viewBox="0 0 20 20">
        <path d="M10 2L10.7524 9.24764L18 10L10.7524 10.7524L10 18L9.24764 10.7524L2 10L9.24764 9.24764L10 2Z" fill="none" stroke-width="2.27286" stroke-linejoin="round"/>
    </symbol>
        <symbol id="l-8" viewBox="0 0 164 521">
        <path d="M21.7 0.0898438V189.82L132.09 199.02L147.04 0.0898438H21.71H21.7ZM94.14 176.02H72.0999V51.0798H102.18L94.1299 176.02H94.14Z" />
        <path d="M163.13 520.97V184.05L0.0800781 167.71L8.00006 520.97H163.13ZM56.1301 208.55H88.6801L98.6801 440.42H54.2401L56.1301 208.55Z" />
    </symbol>
    <symbol id="l-9" viewBox="0 0 203 591">
        <path d="M70.9636 181.187L61.1836 72.2821H125.52V181.187H70.9636ZM9.97564 493.589V590.725H202.998V0.460083L0.0566406 20.1861V215.429L136.981 227.996V503.643L9.97564 493.589Z" />
    </symbol>
    <symbol id="l-0" viewBox="0 0 153 547">
        <path d="M142.65 0.950195L0.659912 11.0902L26.02 536.79L152.8 546.93L142.66 0.950195H142.65ZM97.0099 477.62L66.58 71.9402H97.0099L112.22 477.62H97.0099Z" />
    </symbol>
    <symbol id="l-6" viewBox="0 0 213 597">
        <path d="M138.158 297.985L148.365 510.33H81.2241V297.985H138.158ZM201.805 101.965V0.595337H0.369141V596.59L212.156 596.005V262.25L69.2631 249.135V91.4733L201.805 101.965Z"/>
    </symbol>
    <symbol id="l-7" viewBox="0 0 175 522">
        <path d="M0.0800171 75.2702L11.47 0.950195H174.22L121.71 517.19L34.86 521.07L111.44 62.5902L0.0800171 75.2702Z" />
    </symbol>
    <symbol id="l-2" viewBox="0 0 145 542">
        <path d="M11.3801 0.350098H144.79V173.12L40.7701 461.08L144.79 449.56V541.71H12.1201L0.540039 426.53L88.9001 187.52V86.0801L12.8401 104.01L11.3801 0.350098Z" />
    </symbol>
    <symbol id="l-5" viewBox="0 0 188 542">
        <path d="M0.310059 16.1101V195.98L126.45 207.55V433.85L9.45007 424.59V541.71H187.27L172.2 164.43H65.6301L56.6201 91.7401H172.2L162.49 0.350098L0.310059 16.1101Z" />
    </symbol>
    <symbol id="l-4" viewBox="0 0 225 571">
        <path d="M67.4402 0.939941L0.0302734 479.08L225.2 484.4L218.44 402.47L80.9402 401.57L140.97 10.64L67.4402 0.939941Z" />
        <path d="M140.97 274.33V570.14H196.75L189.99 218.55H140.97V274.33Z" />
    </symbol>
    <symbol id="l-1" viewBox="0 0 179 521">
        <path d="M0.950195 175.347L70.3972 11.9424L142.014 0.0854492V465.276L178.907 470.06V520.441H33.5032L35.6732 436.504H83.5092L72.5672 133.171L35.6732 196.976L0.950195 175.347Z" />
    </symbol>
    <symbol id="l-3" viewBox="0 0 192 524">
        <path d="M14.3532 0.914551H191.05L181.867 523.915L0.0498047 517.982L2.27131 426.369L115.538 433.938L118.559 229.313H24.9253L21.9046 151.302H130.851V52.1105H14.3532V0.914551Z"/>
    </symbol>
    <symbol id="telegram" viewBox="0 0 28 28">
        <path d="M23.2363 4.33678L2.55131 12.3133C1.13965 12.8803 1.14781 13.6678 2.29231 14.0189L7.60298 15.6756L19.8903 7.92311C20.4713 7.56961 21.0021 7.75978 20.5658 8.14711L10.6106 17.1316H10.6083L10.6106 17.1328L10.2443 22.6068C10.781 22.6068 11.0178 22.3606 11.3188 22.0701L13.8983 19.5618L19.2638 23.5249C20.2531 24.0698 20.9636 23.7898 21.2098 22.6091L24.732 6.00978C25.0925 4.56428 24.1801 3.90978 23.2363 4.33678Z" stroke="none"/>
    </symbol>
    <symbol id="see-all" viewBox="0 0 15 14">
        <path fill-rule="evenodd" clip-rule="evenodd" d="M9.35671 1.52124L15 7.35457L9.35671 13.1879L7.74862 11.6249L10.7938 8.4772H0V6.23195H10.7938L7.74862 3.08426L9.35671 1.52124Z" stroke="none" />
    </symbol>
    <symbol id="discord" viewBox="0 0 28 28">
        <path d="M10.8538 4.6372C10.8049 4.28176 10.4832 4.02896 10.1263 4.0655L9.91733 4.08689C9.91733 4.08689 6.82303 4.4248 4.56385 6.23987H4.53489L4.50592 6.26883C3.99906 6.73226 3.777 7.3067 3.42943 8.14666C3.08187 8.98661 2.71017 10.0534 2.38191 11.2361C1.73022 13.6015 1.19922 16.4689 1.19922 19.095V19.317L1.31025 19.5391C2.12606 20.9728 3.57908 21.8852 4.9259 22.5175C6.27272 23.1499 7.43127 23.483 8.23743 23.512C8.56058 23.5298 8.86662 23.3656 9.03059 23.0866L9.03876 23.0727L10.0042 21.3638C11.0276 21.5955 12.2055 21.75 13.562 21.75C14.9184 21.75 16.0963 21.5955 17.1197 21.3638L18.0851 23.0727L18.0933 23.0866C18.2573 23.3656 18.5633 23.5298 18.8865 23.512C19.6878 23.483 20.8512 23.1499 22.198 22.5175C23.5448 21.8852 24.993 20.9728 25.8137 19.5391L25.9247 19.317V19.095C25.9247 16.4689 25.3937 13.6015 24.7372 11.2313C24.4089 10.0486 24.0372 8.98178 23.6896 8.14183C23.3421 7.30188 23.12 6.73226 22.6131 6.26401L22.5842 6.23504H22.5552C20.296 4.41998 17.2017 4.08206 17.2017 4.08206L17.0291 4.06483C16.6618 4.02818 16.3276 4.27908 16.2604 4.64203C16.2604 4.64203 16.0046 6.25814 15.8453 6.99189C14.846 6.8519 14.0302 6.82293 13.5571 6.82293C13.084 6.82293 12.2682 6.8519 11.269 6.98706C11.1097 6.25331 10.8538 4.6372 10.8538 4.6372ZM9.39116 6.01781C9.42978 6.14332 9.64634 7.20486 9.68013 7.30623C8.79342 7.52791 7.74918 7.84575 6.80401 8.30127C6.36412 8.51327 6.23788 9.06154 6.49753 9.4751C6.75502 9.88523 7.29461 10.007 7.73212 9.79938C9.93302 8.75505 12.6524 8.58973 13.5571 8.58973C14.4618 8.58973 17.1775 8.75506 19.381 9.79943C19.8192 10.0071 20.3594 9.88498 20.6172 9.47429C20.8768 9.0608 20.7516 8.51256 20.3122 8.29971C19.3665 7.8416 18.3214 7.5243 17.4341 7.30623C17.4679 7.20486 17.6845 6.14332 17.7231 6.01781C18.5486 6.18194 20.1174 6.5633 21.4208 7.59152C21.416 7.59634 21.7539 8.10321 22.0532 8.83213C22.3621 9.58037 22.7097 10.5748 23.0186 11.6996C23.6172 13.8525 24.0855 16.4786 24.1241 18.7909C23.569 19.6405 22.5359 20.4032 21.4498 20.9149C20.4988 21.359 19.7457 21.5231 19.2968 21.6052L18.8575 20.8618C19.1182 20.7652 19.3789 20.659 19.6009 20.5577C20.1779 20.303 20.6431 20.0406 20.9872 19.823C21.3938 19.5659 21.4384 19.023 21.1215 18.6612C20.8009 18.2951 20.2277 18.2494 19.8066 18.4933C19.5642 18.6337 19.2578 18.7937 18.8816 18.9598C17.7231 19.4715 15.9563 19.9784 13.5571 19.9784C11.158 19.9784 9.39116 19.4667 8.2326 18.9598C7.85718 18.794 7.5512 18.6343 7.30908 18.4941C6.88716 18.2498 6.3129 18.2957 5.99167 18.6624C5.675 19.024 5.71866 19.5662 6.12462 19.8235C6.46897 20.0417 6.93499 20.3045 7.51334 20.5577C7.73539 20.659 7.99607 20.7652 8.25674 20.8618L7.81746 21.6052C7.36852 21.5231 6.61546 21.359 5.66448 20.9149C4.57351 20.4032 3.54529 19.6405 2.99015 18.7909C3.02877 16.4786 3.49702 13.8574 4.0956 11.6996C4.40455 10.5748 4.75212 9.58037 5.06106 8.83213C5.36518 8.10321 5.7031 7.59634 5.69344 7.59152C6.99681 6.5633 8.56569 6.18677 9.39116 6.01781ZM10.4676 12.0326C9.787 12.0326 9.18358 12.4236 8.81188 12.916C8.44501 13.4084 8.26157 14.0167 8.26157 14.6828C8.26157 15.349 8.44501 15.9572 8.81188 16.4496C9.17876 16.942 9.78217 17.333 10.4676 17.333C11.1531 17.333 11.7517 16.942 12.1234 16.4496C12.4903 15.9572 12.6737 15.349 12.6737 14.6828C12.6737 14.0167 12.4903 13.4084 12.1234 12.916C11.7517 12.4236 11.1483 12.0326 10.4676 12.0326ZM16.6466 12.0326C15.9659 12.0326 15.3625 12.4236 14.9908 12.916C14.624 13.4084 14.4405 14.0167 14.4405 14.6828C14.4405 15.349 14.624 15.9572 14.9908 16.4496C15.3577 16.942 15.9611 17.333 16.6466 17.333C17.3321 17.333 17.9307 16.942 18.3024 16.4496C18.6692 15.9572 18.8527 15.349 18.8527 14.6828C18.8527 14.0167 18.6692 13.4084 18.3024 12.916C17.9307 12.4236 17.3272 12.0326 16.6466 12.0326ZM10.4676 13.7994C10.5159 13.7994 10.5787 13.8187 10.6897 13.9636C10.8007 14.1132 10.9118 14.3691 10.9118 14.6828C10.9118 14.9918 10.8007 15.2524 10.6897 15.4021C10.5787 15.5517 10.5159 15.5662 10.4676 15.5662C10.4194 15.5662 10.3566 15.5469 10.2456 15.4021C10.1346 15.2524 10.0235 14.9966 10.0235 14.6828C10.0235 14.3739 10.1346 14.1132 10.2456 13.9636C10.3566 13.8139 10.4194 13.7994 10.4676 13.7994ZM16.6466 13.7994C16.6949 13.7994 16.7576 13.8187 16.8687 13.9636C16.9797 14.1132 17.0907 14.3691 17.0907 14.6828C17.0907 14.9918 16.9797 15.2524 16.8687 15.4021C16.7576 15.5517 16.6949 15.5662 16.6466 15.5662C16.5983 15.5662 16.5356 15.5469 16.4245 15.4021C16.3135 15.2524 16.2025 14.9966 16.2025 14.6828C16.2025 14.3739 16.3135 14.1132 16.4245 13.9636C16.5356 13.8139 16.5983 13.7994 16.6466 13.7994Z" />
    </symbol>
    <symbol id="x" viewBox="0 0 34 34">
        <path d="M20.1648 14.3967L32.5499 0H29.615L18.861 12.5004L10.2718 0H0.365234L13.3538 18.9029L0.365234 34H3.30027L14.6568 20.7991L23.7276 34H33.6341L20.164 14.3967H20.1648ZM16.1448 19.0694L14.8288 17.1871L4.35781 2.20944H8.86586L17.3161 14.2969L18.6321 16.1792L29.6164 31.891H25.1083L16.1448 19.0701V19.0694Z" />
    </symbol>
    <symbol id="github" viewBox="0 0 496 512">
        <path d="M165.9 397.4c0 2-2.3 3.6-5.2 3.6-3.3 .3-5.6-1.3-5.6-3.6 0-2 2.3-3.6 5.2-3.6 3-.3 5.6 1.3 5.6 3.6zm-31.1-4.5c-.7 2 1.3 4.3 4.3 4.9 2.6 1 5.6 0 6.2-2s-1.3-4.3-4.3-5.2c-2.6-.7-5.5 .3-6.2 2.3zm44.2-1.7c-2.9 .7-4.9 2.6-4.6 4.9 .3 2 2.9 3.3 5.9 2.6 2.9-.7 4.9-2.6 4.6-4.6-.3-1.9-3-3.2-5.9-2.9zM244.8 8C106.1 8 0 113.3 0 252c0 110.9 69.8 205.8 169.5 239.2 12.8 2.3 17.3-5.6 17.3-12.1 0-6.2-.3-40.4-.3-61.4 0 0-70 15-84.7-29.8 0 0-11.4-29.1-27.8-36.6 0 0-22.9-15.7 1.6-15.4 0 0 24.9 2 38.6 25.8 21.9 38.6 58.6 27.5 72.9 20.9 2.3-16 8.8-27.1 16-33.7-55.9-6.2-112.3-14.3-112.3-110.5 0-27.5 7.6-41.3 23.6-58.9-2.6-6.5-11.1-33.3 2.6-67.9 20.9-6.5 69 27 69 27 20-5.6 41.5-8.5 62.8-8.5s42.8 2.9 62.8 8.5c0 0 48.1-33.6 69-27 13.7 34.7 5.2 61.4 2.6 67.9 16 17.7 25.8 31.5 25.8 58.9 0 96.5-58.9 104.2-114.8 110.5 9.2 7.9 17 22.9 17 46.4 0 33.7-.3 75.4-.3 83.6 0 6.5 4.6 14.4 17.3 12.1C428.2 457.8 496 362.9 496 252 496 113.3 383.5 8 244.8 8zM97.2 352.9c-1.3 1-1 3.3 .7 5.2 1.6 1.6 3.9 2.3 5.2 1 1.3-1 1-3.3-.7-5.2-1.6-1.6-3.9-2.3-5.2-1zm-10.8-8.1c-.7 1.3 .3 2.9 2.3 3.9 1.6 1 3.6 .7 4.3-.7 .7-1.3-.3-2.9-2.3-3.9-2-.6-3.6-.3-4.3 .7zm32.4 35.6c-1.6 1.3-1 4.3 1.3 6.2 2.3 2.3 5.2 2.6 6.5 1 1.3-1.3 .7-4.3-1.3-6.2-2.2-2.3-5.2-2.6-6.5-1zm-11.4-14.7c-1.6 1-1.6 3.6 0 5.9 1.6 2.3 4.3 3.3 5.6 2.3 1.6-1.3 1.6-3.9 0-6.2-1.4-2.3-4-3.3-5.6-2z"/>
    </symbol>
    <symbol id="download" viewBox="0 0 24 24">
        <path xmlns="http://www.w3.org/2000/svg" d="M11.664 1.063a1.005 1.005 0 0 0-.533.448l-.111.189-.011 5.939-.01 5.938-2.23-2.223c-2.016-2.011-2.248-2.23-2.426-2.289-.39-.129-.766-.044-1.045.235a.986.986 0 0 0-.185 1.144c.061.127 1.036 1.127 3.486 3.576L12 17.42l3.401-3.4c2.45-2.449 3.425-3.449 3.486-3.576a.986.986 0 0 0-.185-1.144c-.279-.279-.655-.364-1.045-.235-.178.059-.41.278-2.427 2.289L13 13.578V7.716c0-6.585.023-6.095-.299-6.417a.996.996 0 0 0-1.037-.236M2.169 14.076c-.237.081-.369.188-.524.424l-.105.16-.013 1.46c-.022 2.516.115 3.433.653 4.378a4.738 4.738 0 0 0 2.92 2.26c.848.222.85.222 6.9.222 6.05 0 6.052 0 6.9-.222a4.731 4.731 0 0 0 2.956-2.332c.515-.954.639-1.819.617-4.306l-.013-1.46-.106-.163a.971.971 0 0 0-.563-.436c-.256-.076-.326-.076-.582 0a.962.962 0 0 0-.561.436l-.106.163-.029 1.52c-.054 2.803-.138 3.162-.915 3.944-.273.275-.41.378-.68.511-.719.354-.915.365-6.918.365-5.982 0-6.201-.012-6.904-.358-.592-.292-1.173-.94-1.373-1.531-.144-.427-.201-1.107-.234-2.831l-.031-1.62-.105-.163a.967.967 0 0 0-.562-.436c-.262-.078-.362-.075-.622.015" fill-rule="evenodd" stroke="none"/>
    </symbol>
    <symbol id="menu" viewBox="0 0 24 24">
        <path fill-rule="evenodd" clip-rule="evenodd" d="M5 4.25C4.30964 4.25 3.75 4.80964 3.75 5.5C3.75 6.19036 4.30964 6.75 5 6.75H19C19.6904 6.75 20.25 6.19036 20.25 5.5C20.25 4.80964 19.6904 4.25 19 4.25H5ZM3.75 12C3.75 11.3096 4.30964 10.75 5 10.75H19C19.6904 10.75 20.25 11.3096 20.25 12C20.25 12.6904 19.6904 13.25 19 13.25H5C4.30964 13.25 3.75 12.6904 3.75 12ZM3.75 18.5C3.75 17.8096 4.30964 17.25 5 17.25H19C19.6904 17.25 20.25 17.8096 20.25 18.5C20.25 19.1904 19.6904 19.75 19 19.75H5C4.30964 19.75 3.75 19.1904 3.75 18.5Z" stroke="none"/>
    </symbol>
    <symbol id="arrow-top-right" viewBox="0 0 24 24">
        <path fill-rule="evenodd" clip-rule="evenodd" d="M18 17C18 17.5523 18.4477 18 19 18C19.5523 18 20 17.5523 20 17V5V4H19H7C6.44772 4 6 4.44771 6 5C6 5.55229 6.44772 6 7 6H16.5858L4.29289 18.2929C3.90237 18.6834 3.90237 19.3166 4.29289 19.7071C4.68342 20.0976 5.31658 20.0976 5.70711 19.7071L18 7.41421V17Z" stroke="none" />
    </symbol>
</svg>


